<svg width="514" height="77" viewBox="0 0 514 77" fill="none" xmlns="http://www.w3.org/2000/svg">
<path d="M53.8 51.2L53.7 46.6L53.4 45.4C53.2667 44.9333 53.0333 44.5333 52.7 44.2C52.4333 43.8667 51.9 43.5333 51.1 43.2C50.3 42.8 48.9 42.6 46.9 42.6C45.0333 42.6 43.9333 42.4333 43.6 42.1L43.2 40.8C43.2 39.2 43.8 38.4 45 38.4L50.9 38.8C53.6333 39.0667 56.1667 39.2667 58.5 39.4C60.9 39.5333 63.2667 39.6 65.6 39.6L69.2 39.5L72.5 39.2L77.6 38.6C78.8 38.6 79.4 39.2667 79.4 40.6C79.4 41.6 79 42.2 78.2 42.4L75.7 42.7C75.0333 42.7 74.2 42.9 73.2 43.3C72.2 43.5 71.4 43.8667 70.8 44.4C70.2667 44.7333 69.8 45.4333 69.4 46.5C69.2 47.4333 69.1 49 69.1 51.2V60.7L69 63.6V64C69 65.6 69.1333 66.9333 69.4 68L70.6 71.3L71.5 73.5L71.3 74.2C71.0333 74.5333 70.8 74.7667 70.6 74.9L69.2 75.3C68.5333 75.3 67.5333 74.6667 66.2 73.4C65 72.1333 63.5333 70.3667 61.8 68.1L58.1 70.4C51.3 74.2 44.1667 76.1 36.7 76.1C32.3667 76.1 28.1667 75.5 24.1 74.3C20.0333 73.0333 16.3 71.1 12.9 68.5C9.56667 65.9 6.7 61.9 4.3 56.5C1.96667 51.0333 0.8 45.3 0.8 39.3C0.8 28.5667 4.33333 19.6333 11.4 12.5C18.5333 5.3 27.4 1.7 38 1.7C41.2 1.7 44.3 2.1 47.3 2.9C50.3 3.63333 53 4.66666 55.4 5.99999C57.7333 7.13333 59.3 7.76666 60.1 7.9C60.9667 7.9 61.6 7.2 62 5.8L62.6 3.1C62.8 2.5 63.4333 2.16666 64.5 2.1C65.5667 2.1 66.1 2.73333 66.1 4V5.2L66.2 8.4L66.4 13.9L67.1 21.2L67.2 22.8C67.2 23.3333 67.3333 23.8667 67.6 24.4L67.8 25.4C67.8 26.3333 67.0667 26.8 65.6 26.8C64.4667 26.8 63.7 26.2667 63.3 25.2L60.7 19.5C60.1 17.9 58.9333 16.0333 57.2 13.9C55.6 11.7667 53.1333 9.86666 49.8 8.2C46.5333 6.53333 43.2333 5.7 39.9 5.7C32.2333 5.7 26.5333 9.2 22.8 16.2C19.0667 23.2 17.2 31.1333 17.2 40C17.2 49.3333 19.3 57 23.5 63C25.6333 65.9333 28.0333 68.1333 30.7 69.6C33.3667 71.0667 36.4333 71.8 39.9 71.8L42.2 71.6L45.5 71C46.9 70.8 48.1667 70.3667 49.3 69.7C50.5 69.0333 52 67.7667 53.8 65.9V51.2ZM85.6734 75.2C84.4734 75.2 83.5401 75.2667 82.8734 75.4L80.7734 75.8L79.7734 75.9C78.8401 75.9 78.3734 75.2 78.3734 73.8C78.3734 73 78.9068 72.4667 79.9734 72.2C80.8401 72.2 81.6401 72.0667 82.3734 71.8L84.7734 70.8C85.6401 70.4 86.2734 69.7 86.6734 68.7C87.0734 67.6333 87.2734 65.5333 87.2734 62.4V17.3V13.7C87.2734 10.6333 85.4401 9.1 81.7734 9.1C80.1068 8.89999 79.2734 8.23333 79.2734 7.1C79.2734 6.1 79.8401 5.5 80.9734 5.3L83.7734 4.5L97.3734 0.799996L101.673 0.699997V62.7V66.1L101.773 67.7L102.373 69.5C102.773 70.1 103.44 70.6333 104.373 71.1L107.973 72.1C109.44 72.3 110.207 72.8333 110.273 73.7C110.273 75.1 109.807 75.8 108.873 75.8L107.973 75.6L102.773 75.2L94.4734 74.9L85.6734 75.2ZM133.998 63.1C133.998 66.2333 134.431 68.3667 135.298 69.5C136.231 70.5667 137.731 71.3333 139.798 71.8C141.864 72.1333 142.898 72.8667 142.898 74C142.898 75.2 142.431 75.8 141.498 75.8L135.198 75.2L132.898 75H129.898H127.598L118.798 75.2L113.298 75.9H112.798C111.531 75.9 110.898 75.2333 110.898 73.9C110.898 72.9 111.498 72.3 112.698 72.1L114.998 71.6C116.998 71.2667 118.298 70.6333 118.898 69.7C119.564 68.7667 119.898 67.7333 119.898 66.6V62.7V40.4V38.6C119.898 37.8667 119.831 37.2333 119.698 36.7C119.564 36.1 119.198 35.4333 118.598 34.7C117.998 33.9667 117.164 33.4667 116.098 33.2L113.298 32.7C112.098 32.7 111.498 32.1333 111.498 31C111.498 30 112.064 29.3667 113.198 29.1L115.598 28.6L129.598 23.9H133.998V63.1ZM125.698 20.2C124.698 20.2 123.831 19.9667 123.098 19.5L119.698 16.1C118.364 14.7667 117.431 13.6667 116.898 12.8C116.564 12.0667 116.331 11.1667 116.198 10.1C116.198 9.3 116.498 8.43333 117.098 7.5L120.298 4C122.564 1.73333 124.531 0.599998 126.198 0.599998C126.998 0.599998 127.664 0.766665 128.198 1.1C128.731 1.3 130.064 2.46666 132.198 4.59999C134.331 6.6 135.398 8.56666 135.398 10.5C135.398 11.5 135.131 12.3 134.598 12.9L131.698 16.2C131.164 16.8667 130.598 17.4667 129.998 18C129.464 18.5333 128.898 19 128.298 19.4C127.698 19.8 126.831 20.0667 125.698 20.2ZM174.224 23.4C179.691 23.4 184.491 24.6 188.624 27C192.824 29.4 194.924 32.1667 194.924 35.3C194.924 36.3667 194.391 37.3667 193.324 38.3C192.324 39.1667 191.158 39.6 189.824 39.6C188.558 39.6 187.458 39.2667 186.524 38.6C185.658 37.8667 184.358 36.3667 182.624 34.1C181.091 31.8333 179.591 30.2333 178.124 29.3C176.658 28.3 174.958 27.8 173.024 27.8C168.891 27.8 165.691 29.5 163.424 32.9C161.158 36.2333 160.024 40.9 160.024 46.9C160.024 53.7 161.591 59.2333 164.724 63.5C167.924 67.7667 172.091 69.9 177.224 69.9C179.824 69.9 182.458 69.3333 185.124 68.2C187.858 67.0667 189.858 65.9333 191.124 64.8L193.424 63C193.758 62.9333 193.958 62.8667 194.024 62.8L194.824 62.9C195.824 63.3 196.324 63.9667 196.324 64.9C196.324 65.8333 194.091 67.9667 189.624 71.3C185.224 74.5667 179.291 76.2 171.824 76.2C163.824 76.2 157.458 73.9333 152.724 69.4C150.458 67.1333 148.724 64.4333 147.524 61.3C146.324 58.1667 145.724 54.6 145.724 50.6C145.724 42.7333 148.391 36.2333 153.724 31.1C159.058 25.9667 165.891 23.4 174.224 23.4ZM199.823 49.3C199.823 41.9 202.523 35.7333 207.923 30.8C213.39 25.8 220.157 23.3 228.223 23.3C236.69 23.3 243.49 25.7 248.623 30.5C253.823 35.3 256.423 41.7667 256.423 49.9C256.423 57.8333 253.823 64.2 248.623 69C243.49 73.7333 236.59 76.1 227.923 76.1C219.79 76.1 213.09 73.8 207.823 69.2C202.557 64.6 199.923 58.4333 199.923 50.7L199.823 49.3ZM214.823 50C214.823 51.2667 214.857 52.2667 214.923 53C214.99 53.7333 215.19 55.0667 215.523 57C215.923 58.8667 216.923 61.7 218.523 65.5C220.19 69.2333 223.557 71.1 228.623 71.1C231.357 71.1 233.59 70.4333 235.323 69.1C237.123 67.7 238.59 65.3667 239.723 62.1C240.923 58.7667 241.523 54.9667 241.523 50.7C241.523 47.0333 241.257 43.8667 240.723 41.2C240.19 38.5333 239.29 36.1667 238.023 34.1C235.69 30.1667 232.357 28.2 228.023 28.2C224.023 28.2 220.79 30.0333 218.323 33.7C215.923 37.3667 214.723 42.4 214.723 48.8L214.823 50ZM259.13 26C260.53 25.6 261.864 25.1667 263.13 24.7C264.464 24.2333 265.43 23.8333 266.03 23.5C267.564 22.7 269.23 21.5333 271.03 20C272.83 18.4 274.164 16.9 275.03 15.5C275.897 14.1 276.83 11.8333 277.83 8.7H281.93V24.5H295.43V29.3H281.83V58.4V62.8C281.83 64.1333 282.064 65.6667 282.53 67.4C283.064 69.0667 284.597 69.9 287.13 69.9C288.53 69.9 289.73 69.6 290.73 69C291.797 68.3333 292.764 67.4 293.63 66.2C294.497 64.9333 295.23 64.2667 295.83 64.2C296.497 64.2 296.997 64.3333 297.33 64.6C297.73 64.8 297.93 65.1667 297.93 65.7C297.93 66.3 297.697 66.9667 297.23 67.7C296.83 68.4333 295.63 70 293.63 72.4C291.63 74.8 288.064 76 282.93 76C281.664 76 280.564 75.9333 279.63 75.8C278.764 75.6667 277.697 75.3667 276.43 74.9C274.564 74.2333 272.597 72.9333 270.53 71C268.664 69 267.73 65.1 267.73 59.3V29.3H259.13V26ZM318.659 63.5C318.659 66.5 318.992 68.4 319.659 69.2C320.392 70 321.059 70.5333 321.659 70.8L324.959 71.4C327.025 71.8 328.092 72.4667 328.159 73.4C328.159 75 327.525 75.8 326.259 75.8L325.759 75.6L320.859 75L319.059 74.9L316.359 74.8H314.459C313.392 74.8 311.759 74.8333 309.559 74.9C307.359 74.9667 305.725 75 304.659 75C303.059 75 301.792 75.0333 300.859 75.1C299.992 75.1667 299.225 75.2667 298.559 75.4L296.759 75.8C295.892 75.8 295.459 75.1667 295.459 73.9C295.459 72.6333 296.192 72 297.659 72C298.459 72 299.092 71.9333 299.559 71.8L301.959 71.1C302.959 70.7667 303.659 70.1 304.059 69.1C304.459 68.0333 304.659 66.1667 304.659 63.5V41.5C304.659 38.5 304.259 36.4333 303.459 35.3C303.125 34.8333 302.792 34.4667 302.459 34.2C302.192 33.8667 301.825 33.5667 301.359 33.3C300.559 33.0333 299.459 32.9 298.059 32.9C296.459 32.9 295.659 32.4667 295.659 31.6C295.659 30.2667 296.259 29.4333 297.459 29.1L300.059 28.4L314.559 23.9H318.759V34.6L323.059 29.2C323.925 28.2 325.259 27 327.059 25.6C328.925 24.1333 331.025 23.4 333.359 23.4C335.759 23.4 337.659 24.0667 339.059 25.4C340.592 26.6 341.359 28.2 341.359 30.2C341.359 31.1333 341.259 31.9333 341.059 32.6C340.859 33.2667 340.492 33.9 339.959 34.5C339.159 35.5 337.959 36 336.359 36C335.225 36 334.025 35.4667 332.759 34.4L330.359 32.4L328.659 32C327.459 32 326.025 32.7333 324.359 34.2C322.692 35.6667 320.792 37.9 318.659 40.9V63.5ZM370.137 36.8L370.037 33.5C370.037 32.3 369.67 31.3 368.937 30.5C367.737 28.5667 365.637 27.6 362.637 27.6C359.17 27.6 356.937 29.2667 355.937 32.6C354.937 35.9333 353.97 38.0333 353.037 38.9C352.17 39.7667 350.837 40.2 349.037 40.2C347.37 40.2 346.003 39.7333 344.937 38.8C343.937 37.8667 343.437 36.6667 343.437 35.2C343.437 32.1333 345.67 29.4 350.137 27C354.67 24.6 359.937 23.4 365.937 23.4C371.803 23.4 376.003 24.4667 378.537 26.6C381.203 28.6 382.803 30.3667 383.337 31.9C383.937 33.3 384.237 35.2333 384.237 37.7V63.9L384.337 66.6C384.337 67.2 384.57 67.9333 385.037 68.8C385.503 69.6667 386.57 70.1 388.237 70.1C388.903 70.1 389.703 69.8667 390.637 69.4L391.937 68.5L392.737 68.3L393.737 68.8L394.237 69.7L393.737 71C391.67 74.4667 387.703 76.2 381.837 76.2C379.437 76.2 377.47 75.8667 375.937 75.2C374.47 74.6 373.303 73.9667 372.437 73.3C371.703 72.5667 370.77 71.4 369.637 69.8L366.737 72.1C364.803 73.4333 362.77 74.4333 360.637 75.1C359.77 75.3667 358.737 75.6 357.537 75.8C356.337 76 355.203 76.1 354.137 76.1C350.137 76.1 346.837 74.8 344.237 72.2C341.637 69.5333 340.337 66.1667 340.337 62.1C340.337 57.2333 341.87 53.7 344.937 51.5C348.07 49.3 352.57 47.7 358.437 46.7L363.837 45.8C366.037 45.4667 368.137 44.8333 370.137 43.9V36.8ZM370.037 48C363.837 49.6 359.67 51.2667 357.537 53C355.47 54.6667 354.437 57.2333 354.437 60.7C354.437 66.5667 356.803 69.5 361.537 69.5C364.537 69.5 366.703 68.4333 368.037 66.3C369.37 64.1667 370.037 61.2667 370.037 57.6V48ZM424.713 23.4C430.179 23.4 434.979 24.6 439.113 27C443.313 29.4 445.413 32.1667 445.413 35.3C445.413 36.3667 444.879 37.3667 443.812 38.3C442.813 39.1667 441.646 39.6 440.313 39.6C439.046 39.6 437.946 39.2667 437.013 38.6C436.146 37.8667 434.846 36.3667 433.113 34.1C431.579 31.8333 430.079 30.2333 428.613 29.3C427.146 28.3 425.446 27.8 423.513 27.8C419.379 27.8 416.179 29.5 413.913 32.9C411.646 36.2333 410.513 40.9 410.513 46.9C410.513 53.7 412.079 59.2333 415.213 63.5C418.413 67.7667 422.579 69.9 427.713 69.9C430.313 69.9 432.946 69.3333 435.613 68.2C438.346 67.0667 440.346 65.9333 441.613 64.8L443.913 63C444.246 62.9333 444.446 62.8667 444.513 62.8L445.313 62.9C446.313 63.3 446.813 63.9667 446.813 64.9C446.813 65.8333 444.579 67.9667 440.113 71.3C435.713 74.5667 429.779 76.2 422.313 76.2C414.313 76.2 407.946 73.9333 403.213 69.4C400.946 67.1333 399.213 64.4333 398.013 61.3C396.813 58.1667 396.213 54.6 396.213 50.6C396.213 42.7333 398.879 36.2333 404.213 31.1C409.546 25.9667 416.379 23.4 424.713 23.4ZM470.712 62.1V66.1C470.912 67.2333 471.278 68.2 471.812 69C472.212 69.8 472.845 70.4 473.712 70.8C473.845 70.8667 474.345 71.0333 475.212 71.3C476.145 71.5667 477.112 71.8333 478.112 72.1C479.178 72.3 479.712 73 479.712 74.2C479.712 75.2667 479.112 75.8 477.912 75.8L472.112 75.3L462.212 74.9C459.012 74.9 456.612 75 455.012 75.2L449.812 75.8C448.478 75.8 447.812 75.2333 447.812 74.1C447.812 73.4333 447.978 72.9667 448.312 72.7L449.812 72.3L451.412 71.9L454.212 70.9C455.012 70.5 455.578 69.8 455.912 68.8C456.312 67.8 456.512 66.7667 456.512 65.7V61.6V18C456.512 14.8667 456.078 12.6667 455.212 11.4C454.345 10.1333 452.845 9.5 450.712 9.5H449.112C448.312 9.36667 447.912 8.8 447.912 7.79999C447.912 6.66666 448.478 5.96667 449.612 5.7L452.912 4.9L466.312 0.699997H470.512V47L483.912 34.9L486.312 32.6C486.712 32.0667 486.978 31.4 487.112 30.6C487.112 29.2667 485.978 28.4667 483.712 28.2C482.578 28.2 481.878 28.1333 481.612 28C481.345 27.8 481.145 27.2667 481.012 26.4C481.012 24.9333 481.478 24.1667 482.412 24.1H482.912L487.012 24.3L494.712 24.6C497.712 24.6 500.145 24.4667 502.012 24.2L504.912 24C506.112 24 506.712 24.6667 506.712 26C506.712 27.2667 506.045 27.9 504.712 27.9C502.712 28.1 500.945 28.5333 499.412 29.2C497.945 29.8 496.945 30.3 496.412 30.7L493.912 32.6L489.412 36.2L483.112 42.6L503.612 66.5L507.612 70.4C508.145 70.7333 508.678 71.0333 509.212 71.3C509.812 71.5667 510.478 71.8333 511.212 72.1C512.412 72.3 513.045 72.8667 513.112 73.8C513.112 75 512.478 75.6 511.212 75.6L506.612 75.4L501.712 75.5L497.812 75.6H496.912C495.778 75.6 494.945 75.5 494.412 75.3C493.878 75.1 493.245 74.5667 492.512 73.7L489.412 70.2L472.912 51L470.712 52.9V62.1Z" fill="#000"/>
</svg>
