<svg width="755" height="195" viewBox="0 0 755 195" fill="none" xmlns="http://www.w3.org/2000/svg">
<path d="M755 2.09688L749.757 30.7098C744.514 59.3227 734.028 116.549 723.542 148.657C713.056 180.766 702.569 187.758 692.083 175.106C681.597 162.455 671.111 130.161 660.625 127.464C650.139 124.767 639.653 151.667 629.167 145.557C618.681 139.447 608.194 100.328 597.708 78.8039C587.222 57.2795 576.736 53.35 566.25 63.3353C555.764 73.3206 545.278 97.2207 534.792 117.227C524.306 137.233 513.819 153.345 503.333 134.491C492.847 115.636 482.361 61.8161 471.875 30.256C461.389 -1.30407 450.903 -10.6039 440.417 18.7304C429.931 48.0646 419.444 116.033 408.958 134.579C398.472 153.125 387.986 122.248 377.5 86.7667C367.014 51.2854 356.528 11.1994 346.042 3.76304C335.556 -3.6733 325.069 21.54 314.583 57.6175C304.097 93.6949 293.611 140.636 283.125 150.093C272.639 159.549 262.153 131.52 251.667 100.674C241.181 69.8277 230.694 36.1648 220.208 25.0987C209.722 14.0326 199.236 25.5633 188.75 27.8282C178.264 30.0931 167.778 23.0921 157.292 37.8744C146.806 52.6567 136.319 89.2222 125.833 89.7296C115.347 90.2369 104.861 54.6861 94.375 65.8788C83.8889 77.0714 73.4028 135.008 62.9167 136.968C52.4306 138.929 41.9445 84.9143 31.4584 85.0904C20.9723 85.2664 10.4861 139.633 5.24308 166.817L3.04371e-05 194" stroke="url(#paint0_linear_3114_3509)" stroke-width="2"/>
<defs>
<linearGradient id="paint0_linear_3114_3509" x1="755" y1="97.5" x2="0" y2="97.5" gradientUnits="userSpaceOnUse">
<stop stop-color="#16A34A" stop-opacity="0"/>
<stop offset="0.5" stop-color="#16A34A"/>
<stop offset="1" stop-color="#16A34A" stop-opacity="0"/>
</linearGradient>
</defs>
</svg>
